<svg width="1479" height="1211" viewBox="0 0 1479 1211" fill="none" xmlns="http://www.w3.org/2000/svg">
<g clip-path="url(#clip0_501_2)">
<path d="M905.5 567V1082L759.5 981.774L822.799 801.947L905.5 567Z" fill="url(#paint0_linear_501_2)"/>
<path d="M513 591V290L905.5 566.5L824.498 803.5L649.5 687L513 591Z" fill="url(#paint1_linear_501_2)"/>
<path d="M513.194 784V808.5L764.284 984.898L825.5 803.5L649.694 687L513.194 784Z" fill="url(#paint2_linear_501_2)"/>
<path d="M905 567V1082L1051 981.774L987.701 801.947L905 567Z" fill="url(#paint3_linear_501_2)"/>
<path d="M1297.5 591V290L905 566.5L986.002 803.5L1161 687L1297.5 591Z" fill="url(#paint4_linear_501_2)"/>
<path d="M1297.31 784V808.5L1046.22 984.898L985 803.5L1160.81 687L1297.31 784Z" fill="url(#paint5_linear_501_2)"/>
</g>
<defs>
<linearGradient id="paint0_linear_501_2" x1="832.5" y1="567" x2="6.49998" y2="567" gradientUnits="userSpaceOnUse">
<stop stop-color="white"/>
<stop offset="1" stop-color="#C4C4C4"/>
</linearGradient>
<linearGradient id="paint1_linear_501_2" x1="709.25" y1="290" x2="709" y2="1520.5" gradientUnits="userSpaceOnUse">
<stop stop-color="#BA4E09"/>
<stop offset="1" stop-color="white"/>
</linearGradient>
<linearGradient id="paint2_linear_501_2" x1="669.347" y1="687" x2="669" y2="1393.5" gradientUnits="userSpaceOnUse">
<stop stop-color="#BA4E09"/>
<stop offset="1" stop-color="white"/>
</linearGradient>
<linearGradient id="paint3_linear_501_2" x1="905" y1="567" x2="1804" y2="567" gradientUnits="userSpaceOnUse">
<stop stop-color="white"/>
<stop offset="0.148958" stop-color="#C4C4C4"/>
</linearGradient>
<linearGradient id="paint4_linear_501_2" x1="1101.25" y1="290" x2="1127" y2="1226" gradientUnits="userSpaceOnUse">
<stop stop-color="#BA4E09"/>
<stop offset="1" stop-color="white"/>
</linearGradient>
<linearGradient id="paint5_linear_501_2" x1="1141.15" y1="687" x2="1141.5" y2="1393.5" gradientUnits="userSpaceOnUse">
<stop stop-color="#BA4E09"/>
<stop offset="1" stop-color="white"/>
</linearGradient>
<clipPath id="clip0_501_2">
<rect width="1479" height="1211" fill="white"/>
</clipPath>
</defs>
</svg>
